<svg xmlns="http://www.w3.org/2000/svg" width="430" height="430" style="width:100%;height:100%;transform:translate3d(0,0,0);content-visibility:visible" viewBox="0 0 430 430"><defs><clipPath id="a"><path d="M0 0h430v430H0z"/></clipPath><clipPath id="e"><path d="M0 0h430v430H0z"/></clipPath><clipPath id="d"><path d="M0 0h430v430H0z"/></clipPath><clipPath id="c"><path d="M0 0h430v430H0z"/></clipPath><clipPath id="b"><path d="M0 0h430v430H0z"/></clipPath></defs><g clip-path="url(#a)"><g clip-path="url(#b)" style="display:none"><g style="display:none"><path class="tertiary"/><path class="tertiary" style="mix-blend-mode:multiply"/><path class="secondary"/><path class="secondary" style="mix-blend-mode:multiply"/></g><path fill="none" class="quaternary" style="display:none"/><path fill="none" class="primary" style="display:none"/><g style="display:none"><path class="primary"/><path fill="none" class="primary"/></g><path fill="none" class="primary" style="display:none"/></g><g clip-path="url(#c)" style="display:none"><g style="display:none"><path class="tertiary"/><path class="tertiary" style="mix-blend-mode:multiply"/><path class="secondary"/><path class="secondary" style="mix-blend-mode:multiply"/></g><path fill="none" class="quaternary" style="display:none"/><path fill="none" class="primary" style="display:none"/><g style="display:none"><path class="primary"/><path fill="none" class="primary"/></g><path fill="none" class="primary" style="display:none"/></g><g clip-path="url(#d)" style="display:block"><g style="display:block"><path fill="#4BB3FD" d="M247.87 380.752a168.488 168.488 0 0 0 86.27-46.112 168.467 168.467 0 0 0 36.529-183.62 168.467 168.467 0 0 0-36.529-54.66 168.488 168.488 0 0 0-183.619-36.525 168.492 168.492 0 0 0 0 311.33 168.488 168.488 0 0 0 97.349 9.587z" class="tertiary"/><path fill="#4BB3FD" d="M27.324 166.255a168.531 168.531 0 0 0 63.308-24.197 168.54 168.54 0 0 1-166.89-292.38A168.53 168.53 0 0 0 27.324 166.255z" class="tertiary" opacity=".5" style="mix-blend-mode:multiply" transform="translate(215.003 215.5)"/><path fill="#EBE6EF" d="M241.863 350.554a137.704 137.704 0 0 0 70.505-37.684 137.693 137.693 0 0 0 29.854-150.067 137.704 137.704 0 0 0-179.918-74.521A137.692 137.692 0 0 0 77.301 215.5a137.692 137.692 0 0 0 164.562 135.054z" class="secondary"/><path fill="#EBE6EF" d="M59.628 127.578A137.712 137.712 0 0 0 111.6 101.97 137.721 137.721 0 0 1-80.062-48.15a137.724 137.724 0 0 1 49.992-83.57A137.713 137.713 0 0 0-91.65 65.4a137.696 137.696 0 0 0 93.374 64.143 137.699 137.699 0 0 0 57.904-1.965z" class="secondary" opacity=".5" style="mix-blend-mode:multiply" transform="translate(188.964 221.471)"/></g><path fill="none" stroke="#F24C00" stroke-linecap="round" stroke-linejoin="round" stroke-width="7" d="M0-34.5v69" class="quaternary" style="display:block" transform="translate(215 177.76)"/><path fill="none" stroke="#3A3347" stroke-linecap="round" stroke-linejoin="round" stroke-width="7" d="m18.055-18.055-36.11 36.11" class="primary" style="display:block" transform="translate(233.055 197.445)"/><g style="display:block"><path fill="#3A3347" d="M215 227.54c6.65 0 12.04-5.39 12.04-12.04 0-6.65-5.39-12.04-12.04-12.04-6.65 0-12.04 5.39-12.04 12.04 0 6.65 5.39 12.04 12.04 12.04z" class="primary"/><path fill="none" stroke="#3A3347" d="M215 227.54c6.65 0 12.04-5.39 12.04-12.04 0-6.65-5.39-12.04-12.04-12.04-6.65 0-12.04 5.39-12.04 12.04 0 6.65 5.39 12.04 12.04 12.04z" class="primary"/></g><path fill="none" stroke="#3A3347" stroke-linecap="round" stroke-linejoin="round" stroke-width="7" d="M-72.34 72.34-85.1 85.1M-102.31 0h-18.04m48.01-72.34L-85.1-85.1M0-102.31v-18.04m72.34 48.01L85.1-85.1M102.31 0h18.04M72.34 72.34 85.1 85.1M0 102.31v18.04" class="primary" style="display:block" transform="translate(215 215.5)"/></g><g clip-path="url(#e)" style="display:none"><g style="display:none"><path class="tertiary"/><path class="tertiary" style="mix-blend-mode:multiply"/><path class="secondary"/><path class="secondary" style="mix-blend-mode:multiply"/></g><path fill="none" class="quaternary" style="display:none"/><path fill="none" class="primary" style="display:none"/><g style="display:none"><path class="primary"/><path fill="none" class="primary"/></g><path fill="none" class="primary" style="display:none"/></g></g></svg>